<svg xmlns="http://www.w3.org/2000/svg" viewBox="0 0 800 800" role="img"><rect x="0" y="0" width="800" height="800" fill="#E7DFCC"/>
    <circle cx="560" cy="180" r="70" fill="#9B4435"/>
    <path d="M212,168 q14,-14 28,0 q14,-14 28,0" fill="none" stroke="#181512" stroke-width="6" stroke-linecap="round"/>
    <path d="M272,208 q11,-11 22,0 q11,-11 22,0" fill="none" stroke="#181512" stroke-width="5" stroke-linecap="round"/>
    <path d="M0,470 Q150,378 320,440 T800,418 L800,800 L0,800 Z" fill="#315452"/>
    <path d="M0,545 Q200,470 420,522 T800,502 L800,800 L0,800 Z" fill="#183E3D"/>
    <ellipse cx="400" cy="612" rx="262" ry="92" fill="none" stroke="#F7F4EC"
      stroke-width="9" stroke-dasharray="2 20" stroke-linecap="round"/>
    <rect x="0" y="724" width="800" height="76" fill="#181512"/>
    <circle cx="150" cy="752" r="7" fill="#F7F4EC" opacity="0.85"/><circle cx="300" cy="762" r="7" fill="#F7F4EC" opacity="0.85"/><circle cx="450" cy="752" r="7" fill="#F7F4EC" opacity="0.85"/><circle cx="560" cy="762" r="7" fill="#F7F4EC" opacity="0.85"/><circle cx="660" cy="752" r="7" fill="#F7F4EC" opacity="0.85"/>
  <rect x="34" y="34" width="732" height="732" fill="none" stroke="#181512" stroke-opacity="0.45" stroke-width="2"/></svg>